<?xml version="1.0" standalone="no"?>
<!DOCTYPE svg PUBLIC "-//W3C//DTD SVG 20010904//EN"
 "http://www.w3.org/TR/2001/REC-SVG-20010904/DTD/svg10.dtd">
<svg version="1.0" xmlns="http://www.w3.org/2000/svg"
 width="427.000000pt" height="427.000000pt" viewBox="0 0 427.000000 427.000000"
 preserveAspectRatio="xMidYMid meet">
<metadata>
Created by potrace 1.14, written by Peter Selinger 2001-2017
</metadata>
<g transform="translate(0.000000,427.000000) scale(0.100000,-0.100000)"
fill="#000000" stroke="none">
<path d="M170 3430 l0 -840 890 0 890 0 0 840 0 840 -890 0 -890 0 0 -840z"/>
<path d="M2150 3430 l0 -840 890 0 890 0 0 130 0 130 80 0 c47 0 80 4 80 10 0
6 -20 10 -44 10 -59 0 -94 14 -106 42 -7 19 -9 16 -9 -19 l-1 -43 -219 0
c-136 0 -222 4 -226 10 -4 6 13 10 44 10 69 0 97 13 110 51 15 44 16 1083 0
1128 -14 41 -35 51 -104 51 -35 0 -54 4 -50 10 4 6 90 10 226 10 l219 0 1 -42
c0 -35 2 -39 9 -21 12 31 41 43 99 43 28 0 51 5 51 10 0 6 -33 10 -80 10 l-80
0 0 75 0 75 -890 0 -890 0 0 -840z m1273 583 c9 -146 9 -245 -2 -239 -4 3 -11
38 -14 79 -13 179 -80 236 -284 245 l-113 5 0 -569 c0 -368 4 -582 11 -607 12
-44 36 -57 110 -57 27 0 49 -4 49 -10 0 -6 -108 -10 -305 -10 -197 0 -305 4
-305 10 0 6 24 10 54 10 38 0 61 6 77 19 l24 19 3 598 2 597 -107 -6 c-60 -3
-126 -12 -147 -19 -83 -27 -128 -102 -142 -240 -12 -126 -23 -69 -18 95 3 89
7 168 10 175 3 9 121 12 547 12 l544 0 6 -107z"/>
<path d="M2338 1799 l-3 -591 -165 466 -165 466 -86 0 -87 0 -15 -42 c-65
-188 -402 -1099 -417 -1127 -29 -58 -54 -74 -120 -79 -33 -2 -60 -8 -60 -13 0
-5 95 -9 210 -9 133 0 210 4 210 10 0 6 -35 10 -84 10 -109 0 -132 15 -122 81
4 24 33 114 65 199 l58 155 229 3 229 2 58 -168 c65 -193 72 -247 31 -262 -14
-6 -52 -10 -85 -10 -33 0 -59 -4 -59 -10 0 -6 70 -10 190 -10 l190 0 0 -130 0
-130 890 0 890 0 0 890 0 890 -890 0 -890 0 -2 -591z m852 341 c0 -5 -28 -10
-61 -12 -102 -5 -100 4 -97 -352 l3 -299 176 189 c247 266 288 314 311 358 37
72 3 106 -108 106 -30 0 -54 5 -54 10 0 6 80 10 220 10 140 0 220 -4 220 -10
0 -5 -16 -10 -35 -10 -43 0 -93 -20 -139 -55 -42 -32 -356 -370 -356 -383 0
-14 417 -671 457 -720 20 -25 52 -52 72 -61 l36 -16 -113 -3 c-179 -4 -286 25
-337 92 -13 17 -80 128 -150 246 -70 118 -133 226 -142 238 l-15 24 -24 -23
-24 -22 0 -238 c0 -158 4 -247 12 -263 12 -28 28 -35 103 -46 28 -4 -87 -8
-260 -8 -229 0 -293 3 -245 10 114 16 105 -34 108 576 2 290 0 546 -3 570 -9
64 -33 82 -105 82 -33 0 -60 4 -60 10 0 6 108 10 305 10 186 0 305 -4 305 -10z
m-1253 -575 l69 -210 -214 -3 c-118 -1 -217 -1 -219 2 -2 2 49 148 113 325
l118 322 32 -113 c18 -62 63 -207 101 -323z"/>
<path d="M705 2149 c-178 -17 -318 -115 -357 -249 -18 -63 -15 -165 7 -230 28
-85 114 -165 240 -225 220 -104 268 -130 310 -171 79 -76 96 -205 39 -301 -28
-48 -99 -88 -176 -98 -61 -9 -145 15 -180 52 -52 54 -88 175 -88 296 l0 49
-42 -7 c-134 -21 -193 -124 -139 -240 68 -146 314 -211 565 -149 189 46 306
183 308 359 2 161 -68 255 -258 345 -60 29 -141 67 -179 86 -105 49 -163 97
-191 158 -42 90 -29 202 30 254 45 40 96 55 163 50 111 -9 147 -68 169 -272
l6 -58 50 6 c163 22 217 163 101 266 -76 67 -213 95 -378 79z"/>
<path d="M1795 370 c16 -16 36 -30 45 -30 9 0 29 14 45 30 25 26 26 30 10 30
-10 0 -27 -7 -37 -17 -17 -15 -19 -15 -36 0 -10 10 -27 17 -37 17 -16 0 -15
-4 10 -30z"/>
<path d="M330 160 c0 -127 2 -150 15 -150 13 0 15 21 15 128 l0 127 83 -127
c64 -100 87 -127 105 -128 22 0 22 1 22 150 0 125 -2 150 -15 150 -12 0 -15
-23 -17 -125 l-3 -125 -82 125 c-61 92 -88 125 -103 125 -19 0 -20 -6 -20
-150z"/>
<path d="M1146 302 c-3 -6 -21 -50 -40 -98 -19 -49 -43 -113 -55 -141 -19 -50
-20 -53 -3 -53 12 0 23 13 31 38 20 56 28 62 88 62 l54 0 21 -50 c14 -33 27
-50 38 -50 15 0 9 23 -40 148 -54 136 -77 171 -94 144z m64 -159 c0 -2 -21 -3
-46 -3 -33 0 -45 4 -42 13 3 6 13 36 23 65 l19 52 23 -62 c12 -35 23 -64 23
-65z"/>
<path d="M1773 295 c-17 -12 -23 -26 -23 -55 0 -47 16 -64 86 -95 60 -27 76
-55 47 -87 -16 -18 -26 -20 -81 -15 -55 4 -63 3 -60 -12 3 -12 18 -17 71 -19
60 -3 70 0 92 22 51 51 29 106 -56 143 -44 19 -61 32 -65 50 -12 47 36 68 109
49 24 -6 28 -4 25 11 -5 25 -113 31 -145 8z"/>
<path d="M2420 160 c0 -143 1 -150 20 -150 19 0 20 7 20 150 0 143 -1 150 -20
150 -19 0 -20 -7 -20 -150z"/>
<path d="M2993 277 c-34 -32 -37 -39 -41 -99 -5 -78 16 -131 60 -154 38 -20
142 -16 146 6 2 12 -8 14 -54 12 -50 -4 -59 -1 -84 23 -51 49 -49 144 5 195
23 22 57 27 120 18 12 -2 20 3 20 12 0 12 -15 16 -67 18 -64 3 -69 1 -105 -31z"/>
<path d="M3640 160 l0 -150 85 0 c69 0 85 3 85 15 0 12 -14 15 -65 15 l-65 0
0 55 0 55 60 0 c47 0 60 3 60 15 0 12 -13 15 -60 15 l-60 0 0 50 0 50 65 0
c51 0 65 3 65 15 0 12 -16 15 -85 15 l-85 0 0 -150z"/>
</g>
</svg>
